<?xml version="1.0" encoding="UTF-8"?>
<svg width="18px" height="18px" viewBox="0 0 18 18" version="1.1" xmlns="http://www.w3.org/2000/svg" xmlns:xlink="http://www.w3.org/1999/xlink">
    <!-- Generator: Sketch 48.1 (47250) - http://www.bohemiancoding.com/sketch -->
    <title>icon-user</title>
    <desc>Created with Sketch.</desc>
    <defs>
        <path d="M3,5 L3,19 C3,20.1 3.89,21 5,21 L19,21 C20.1,21 21,20.1 21,19 L21,5 C21,3.9 20.1,3 19,3 L5,3 C3.89,3 3,3.9 3,5 Z M15,9 C15,10.66 13.66,12 12,12 C10.34,12 9,10.66 9,9 C9,7.34 10.34,6 12,6 C13.66,6 15,7.34 15,9 Z M6,17 C6,15 10,13.9 12,13.9 C14,13.9 18,15 18,17 L18,18 L6,18 L6,17 Z" id="path-1"></path>
    </defs>
    <g id="Todo" stroke="none" stroke-width="1" fill="none" fill-rule="evenodd" transform="translate(-995.000000, -135.000000)">
        <g id="menu" transform="translate(824.000000, 0.000000)">
            <g id="links" transform="translate(0.000000, 64.000000)">
                <g id="â—¼ï¸link2" transform="translate(0.000000, 56.000000)">
                    <g id="ðŸ”˜-right" transform="translate(168.000000, 12.000000)">
                        <mask id="mask-2" fill="white">
                            <use xlink:href="#path-1"></use>
                        </mask>
                        <use id="icon-user" fill="#fff" fill-rule="nonzero" xlink:href="#path-1"></use>
                    </g>
                </g>
            </g>
        </g>
    </g>
</svg>