<?xml version="1.0" encoding="UTF-8"?>
<svg width="20px" height="16px" viewBox="0 0 20 16" version="1.1" xmlns="http://www.w3.org/2000/svg" xmlns:xlink="http://www.w3.org/1999/xlink">
    <!-- Generator: Sketch 48.1 (47250) - http://www.bohemiancoding.com/sketch -->
    <title>icon-creditcard</title>
    <desc>Created with Sketch.</desc>
    <defs>
        <path d="M20,4 L4,4 C2.89,4 2.01,4.89 2.01,6 L2,18 C2,19.11 2.89,20 4,20 L20,20 C21.11,20 22,19.11 22,18 L22,6 C22,4.89 21.11,4 20,4 Z M20,18 L4,18 L4,12 L20,12 L20,18 Z M20,8 L4,8 L4,6 L20,6 L20,8 Z" id="path-1"></path>
    </defs>
    <g id="Todo" stroke="none" stroke-width="1" fill="none" fill-rule="evenodd" transform="translate(-994.000000, -192.000000)">
        <g id="menu" transform="translate(824.000000, 0.000000)">
            <g id="links" transform="translate(0.000000, 64.000000)">
                <g id="â—¼ï¸link3" transform="translate(0.000000, 112.000000)">
                    <g id="ðŸ”˜-right" transform="translate(168.000000, 12.000000)">
                        <mask id="mask-2" fill="white">
                            <use xlink:href="#path-1"></use>
                        </mask>
                        <use id="icon-creditcard" fill="#fff" fill-rule="nonzero" xlink:href="#path-1"></use>
                    </g>
                </g>
            </g>
        </g>
    </g>
</svg>